<?xml version="1.0" encoding="UTF-8" standalone="no"?>
<!DOCTYPE svg PUBLIC "-//W3C//DTD SVG 1.1//EN" "http://www.w3.org/Graphics/SVG/1.1/DTD/svg11.dtd">
<svg width="100%" height="100%" viewBox="0 0 973 128" version="1.1" xmlns="http://www.w3.org/2000/svg" xmlns:xlink="http://www.w3.org/1999/xlink" xml:space="preserve" xmlns:serif="http://www.serif.com/" style="fill-rule:evenodd;clip-rule:evenodd;stroke-linejoin:round;stroke-miterlimit:2;">
    <g id="Artboard1" transform="matrix(1,0,0,1,0.00143701,-77.79)">
        <rect x="-0.001" y="77.79" width="972.081" height="127.119" style="fill:none;"/>
        <clipPath id="_clip1">
            <rect x="-0.001" y="77.79" width="972.081" height="127.119"/>
        </clipPath>
        <g clip-path="url(#_clip1)">
            <g transform="matrix(1,0,0,1,0.998563,0.79)">
                <path d="M99.386,197.715C104.113,196.479 107.411,192.194 107.411,187.303L107.411,141.897C107.411,135.949 102.589,131.134 96.648,131.134L72.806,131.134C66.866,131.134 62.043,135.948 62.043,141.897C62.043,147.839 66.865,152.652 72.806,152.652L80.831,152.652L80.831,178.151C78.67,179.232 73.615,179.955 67.27,179.955C44.671,179.955 28.947,165.125 28.947,139.992C28.947,113.6 46.289,100.574 69.26,100.574C76.616,100.574 82.448,101.281 87.315,102.409C93.225,103.763 99.135,100.194 100.659,94.33C101.468,91.266 100.971,88.015 99.323,85.318C97.673,82.627 94.999,80.722 91.903,80.045C85.854,78.723 78.294,77.79 69.616,77.79C29.661,77.79 0.174,100.94 0.002,141.44C-0.168,159.341 5.974,175.252 17.173,185.749C28.401,196.598 44.499,202.196 66.739,202.196C78.654,202.193 90.552,200.016 99.386,197.715Z" style="fill:rgb(130,115,151);fill-rule:nonzero;"/>
            </g>
            <g transform="matrix(1,0,0,1,0.998563,0.79)">
                <path d="M157.396,169.65L192.312,169.65L198.689,190.871C200.478,196.843 205.967,200.927 212.204,200.927C216.684,200.927 220.898,198.796 223.558,195.187C226.218,191.578 227.011,186.921 225.673,182.636L196.637,88.985C194.802,83.083 189.343,79.055 183.152,79.055L167.833,79.055C161.628,79.055 156.153,83.107 154.349,89.041L125.499,183.445C124.239,187.543 125.002,191.999 127.552,195.444C130.103,198.889 134.147,200.927 138.439,200.927C144.505,200.927 149.839,196.875 151.473,191.011L157.396,169.65ZM168.61,123.171C170.586,116.119 172.405,106.896 174.21,99.671L174.583,99.671C176.387,106.897 178.564,115.947 180.711,123.171L188.316,149.028L161.365,149.028L168.61,123.171Z" style="fill:rgb(130,115,151);fill-rule:nonzero;"/>
            </g>
            <g transform="matrix(1,0,0,1,0.998563,0.79)">
                <path d="M378.727,186.844L373.517,91.677C373.127,84.601 367.264,79.056 360.173,79.056L346.564,79.056C340.762,79.056 335.629,82.797 333.841,88.319L323.811,119.556C319.829,133.117 315.676,149.215 312.239,163.312L311.694,163.312C308.988,149.028 305.193,133.841 301.383,119.742L292.284,88.653C290.62,82.967 285.393,79.056 279.468,79.056L265.269,79.056C258.239,79.056 252.407,84.531 251.955,91.561L245.828,187.505C245.61,190.98 246.839,194.403 249.219,196.946C251.598,199.488 254.941,200.928 258.426,200.928C265.159,200.928 270.713,195.631 271.023,188.897L272.641,154.642C273.542,139.455 274.087,120.643 274.818,104.189L275.175,104.189C278.069,120.101 282.221,137.457 286.188,151.742L298.319,195.678C298.848,197.607 300.604,198.943 302.611,198.943L317.448,198.943C319.408,198.943 321.119,197.677 321.71,195.818L335.553,151.383C340.266,137.105 345.335,119.741 349.13,104.188L349.675,104.188C349.675,121.91 350.204,139.625 350.763,154.277L352.055,188.088C352.335,195.258 358.229,200.928 365.399,200.928C369.07,200.928 372.569,199.418 375.104,196.751C377.623,194.092 378.929,190.507 378.727,186.844Z" style="fill:rgb(130,115,151);fill-rule:nonzero;"/>
            </g>
            <g transform="matrix(1,0,0,1,0.998563,0.79)">
                <path d="M467.191,178.32L428.402,178.32L428.402,149.392L462.042,149.392C468.232,149.392 473.255,144.369 473.255,138.179C473.255,138.179 468.232,126.965 462.042,126.965L428.402,126.965L428.402,101.66L464.672,101.66C470.925,101.66 475.978,96.599 475.978,90.354C475.978,84.117 470.925,79.055 464.672,79.055L412.042,79.055C405.789,79.055 400.735,84.118 400.735,90.354L400.735,189.627C400.735,195.864 405.79,200.926 412.042,200.926L467.192,200.926C473.445,200.926 478.498,195.863 478.498,189.627C478.497,183.383 473.443,178.32 467.191,178.32Z" style="fill:rgb(130,115,151);fill-rule:nonzero;"/>
            </g>
            <g transform="matrix(1,0,0,1,517.833,-195.009)">
                <path d="M81.47,274.855C45.48,274.855 22.166,302.158 22.166,338.685C22.166,373.397 43.333,400.708 79.479,400.708C115.11,400.708 139.341,376.477 139.341,336.514C139.341,302.89 118.903,274.855 81.47,274.855ZM80.925,378.826C62.48,378.826 51.282,362.013 51.282,338.14C51.282,314.461 62.121,296.739 80.753,296.739C99.743,296.739 110.225,315.533 110.225,337.417C110.225,361.104 99.572,378.826 80.925,378.826Z" style="fill:rgb(130,115,151);fill-rule:nonzero;"/>
            </g>
            <g transform="matrix(1,0,0,1,517.833,-195.009)">
                <path d="M239.127,276.846C233.061,276.846 227.727,280.828 225.985,286.637L213.372,328.917C209.204,342.844 205.393,357.316 202.329,371.958L201.8,371.958C198.892,356.763 195.097,342.844 190.929,328.38L179.062,287.133C177.32,281.045 171.736,276.845 165.391,276.845C160.849,276.845 156.589,279.016 153.913,282.685C151.237,286.356 150.46,291.084 151.86,295.408L181.923,389.189C183.742,394.867 189.015,398.716 194.971,398.716L207.304,398.716C213.184,398.716 218.409,394.959 220.292,389.385L252.112,294.933C253.528,290.749 252.827,286.145 250.261,282.552C247.68,278.969 243.543,276.846 239.127,276.846Z" style="fill:rgb(130,115,151);fill-rule:nonzero;"/>
            </g>
            <g transform="matrix(1,0,0,1,517.833,-195.009)">
                <path d="M337.73,376.113L298.957,376.113L298.957,347.184L332.581,347.184C338.771,347.184 343.794,342.161 343.794,335.97C343.794,335.97 338.771,324.757 332.581,324.757L298.957,324.757L298.957,299.454L335.211,299.454C341.464,299.454 346.517,294.391 346.517,288.155C346.517,281.91 341.464,276.848 335.211,276.848L284.944,276.848C277.401,276.848 271.289,282.968 271.289,290.512L271.289,385.056C271.289,392.599 277.401,398.719 284.944,398.719L337.73,398.719C343.983,398.719 349.036,393.656 349.036,387.42C349.036,381.174 343.983,376.113 337.73,376.113Z" style="fill:rgb(130,115,151);fill-rule:nonzero;"/>
            </g>
            <g transform="matrix(1,0,0,1,517.833,-195.009)">
                <path d="M455.246,311.023C455.246,299.81 451.264,291.31 444.032,285.526C435.354,278.651 422.679,275.945 404.606,275.945C395.772,275.945 387.482,276.334 380.344,276.964C373.283,277.585 367.885,283.503 367.885,290.573L367.885,385.055C367.885,392.598 373.997,398.718 381.556,398.718C389.1,398.718 395.212,392.598 395.212,385.055L395.212,350.8L403.532,350.8C414.73,350.978 419.971,355.14 423.237,370.327C425.057,377.886 426.69,384.152 428.121,388.959C429.848,394.753 435.165,398.718 441.201,398.718L441.76,398.718C445.913,398.718 449.847,396.773 452.383,393.477C454.902,390.172 455.758,385.879 454.684,381.867C453.192,376.315 451.606,370.147 450.003,364.363C446.923,353.156 442.226,345.015 433.719,341.578L433.719,341.033C444.203,337.245 455.246,326.569 455.246,311.023ZM406.053,330.908L395.214,330.908L395.214,297.276C397.189,296.918 400.984,296.373 407.687,296.373C420.331,296.553 427.935,302.159 427.935,313.372C427.935,324.033 419.801,330.908 406.053,330.908Z" style="fill:rgb(130,115,151);fill-rule:nonzero;"/>
            </g>
        </g>
    </g>
</svg>
